# Blender v2.83.20 OBJ File: 'everness_ceramic_pot.blend'
# www.blender.org
mtllib everness_ceramic_pot.mtl
o everness_ceramic_pot.vox
v -0.375000 -0.499000 0.375000
v -0.437500 -0.436500 0.437500
v -0.437500 0.501000 0.125000
v -0.250000 0.501000 0.125000
v -0.250000 0.501000 -0.250000
v -0.312500 0.563500 0.312500
v -0.312500 0.751000 -0.312500
v 0.375000 -0.499000 0.375000
v 0.437500 -0.436500 0.437500
v 0.437500 0.501000 0.437500
v 0.312500 0.563500 0.312500
v -0.375000 -0.436500 0.375000
v 0.375000 -0.436500 0.375000
v -0.250000 0.501000 0.437500
v -0.250000 0.501000 0.250000
v -0.250000 0.563500 0.250000
v 0.250000 0.563500 0.250000
v -0.312500 0.751000 0.312500
v -0.187500 0.751000 0.312500
v 0.312500 0.751000 0.312500
v -0.187500 0.751000 -0.187500
v 0.187500 0.751000 -0.187500
v -0.375000 -0.436500 -0.375000
v -0.250000 -0.436500 -0.375000
v 0.375000 -0.499000 -0.375000
v -0.437500 -0.436500 -0.437500
v 0.437500 0.501000 -0.437500
v -0.312500 0.563500 -0.312500
v 0.062500 0.563500 -0.312500
v -0.062500 0.751000 0.187500
v 0.312500 0.751000 -0.312500
v -0.375000 -0.499000 -0.375000
v -0.437500 -0.436500 -0.375000
v -0.250000 -0.436500 -0.437500
v 0.375000 -0.436500 -0.375000
v 0.437500 -0.436500 -0.437500
v -0.312500 0.563500 -0.250000
v -0.250000 0.563500 -0.250000
v 0.062500 0.563500 -0.250000
v 0.250000 0.563500 -0.250000
v 0.312500 0.563500 -0.312500
v -0.437500 0.501000 0.437500
v 0.250000 0.501000 0.250000
v 0.250000 0.501000 -0.250000
v -0.437500 0.501000 -0.437500
v -0.062500 0.751000 0.312500
v -0.187500 0.751000 0.187500
v 0.187500 0.751000 0.187500
v 0.437500 -0.436500 0.437500
v 0.437500 -0.436500 -0.437500
v 0.437500 0.501000 0.437500
v 0.437500 0.501000 -0.437500
v -0.375000 -0.499000 0.375000
v -0.437500 -0.436500 0.437500
v -0.437500 0.501000 0.125000
v -0.250000 0.501000 0.125000
v -0.250000 0.501000 -0.250000
v -0.312500 0.563500 0.312500
v -0.312500 0.751000 -0.312500
v 0.375000 -0.499000 0.375000
v 0.437500 -0.436500 0.437500
v 0.437500 0.501000 0.437500
v 0.312500 0.563500 0.312500
v -0.187500 0.626000 -0.187500
v -0.375000 -0.436500 0.375000
v 0.375000 -0.436500 0.375000
v -0.250000 0.501000 0.437500
v -0.250000 0.501000 0.250000
v -0.250000 0.563500 0.250000
v 0.250000 0.563500 0.250000
v 0.187500 0.626000 -0.187500
v -0.312500 0.751000 0.312500
v -0.187500 0.751000 0.312500
v 0.312500 0.751000 0.312500
v -0.187500 0.751000 -0.187500
v 0.187500 0.751000 -0.187500
v -0.375000 -0.436500 -0.375000
v -0.250000 -0.436500 -0.375000
v 0.375000 -0.499000 -0.375000
v -0.437500 -0.436500 -0.437500
v 0.437500 0.501000 -0.437500
v -0.312500 0.563500 -0.312500
v 0.062500 0.563500 -0.312500
v -0.187500 0.626000 0.187500
v -0.062500 0.751000 0.187500
v 0.312500 0.751000 -0.312500
v -0.375000 -0.499000 -0.375000
v -0.437500 -0.436500 -0.375000
v -0.250000 -0.436500 -0.437500
v 0.375000 -0.436500 -0.375000
v 0.437500 -0.436500 -0.437500
v -0.312500 0.563500 -0.250000
v -0.250000 0.563500 -0.250000
v 0.062500 0.563500 -0.250000
v 0.250000 0.563500 -0.250000
v 0.312500 0.563500 -0.312500
v -0.437500 0.501000 0.437500
v 0.250000 0.501000 0.250000
v 0.250000 0.501000 -0.250000
v -0.437500 0.501000 -0.437500
v 0.187500 0.626000 0.187500
v -0.062500 0.751000 0.312500
v -0.187500 0.751000 0.187500
v 0.187500 0.751000 0.187500
v 0.437500 -0.436500 0.437500
v 0.437500 -0.436500 -0.437500
v 0.437500 0.501000 0.437500
v 0.437500 0.501000 -0.437500
vt 0.437500 0.250000
vt 0.375000 0.218750
vt 0.437500 0.218750
vt 0.000000 0.000000
vt 0.093750 0.000000
vt 0.093750 0.046875
vt 0.437500 0.000000
vt 0.437500 0.218750
vt 0.343750 0.171875
vt 0.000000 0.000000
vt 0.000000 0.000000
vt 0.000000 0.000000
vt 0.843750 0.218750
vt 0.843750 0.015625
vt 0.812500 0.031250
vt 0.625000 0.375000
vt 0.312500 0.375000
vt 0.562500 0.343750
vt 0.468750 0.203125
vt 0.812500 0.031250
vt 0.468750 0.031250
vt 0.531250 0.218750
vt 0.531250 0.203125
vt 0.468750 0.203125
vt 0.906250 0.234375
vt 0.937500 0.375000
vt 0.937500 0.218750
vt 0.812500 0.375000
vt 0.812500 0.359375
vt 0.656250 0.359375
vt 0.000000 0.000000
vt 0.000000 0.000000
vt 0.000000 0.000000
vt 0.000000 0.000000
vt 0.000000 0.000000
vt 0.031250 0.390625
vt 0.437500 0.390625
vt 0.281250 0.625000
vt 0.093750 0.640625
vt 0.093750 0.625000
vt 0.281250 0.625000
vt 0.062500 0.687500
vt 0.062500 0.640625
vt 0.093750 0.640625
vt 0.062500 0.218750
vt 0.250000 0.250000
vt 0.250000 0.218750
vt 0.843750 0.687500
vt 0.781250 0.703125
vt 0.468750 0.687500
vt 0.343750 0.937500
vt 0.093750 0.953125
vt 0.093750 0.937500
vt 0.062500 0.343750
vt 0.250000 0.375000
vt 0.062500 0.375000
vt 0.875000 0.390625
vt 0.531250 0.625000
vt 0.031250 0.375000
vt 0.406250 0.390625
vt 0.031250 0.390625
vt 0.781250 0.625000
vt 0.531250 0.640625
vt 0.531250 0.625000
vt 0.406250 0.687500
vt 0.031250 0.703125
vt 0.031250 0.687500
vt 0.312500 0.343750
vt 0.250000 0.250000
vt 0.312500 0.250000
vt 0.812500 0.640625
vt 0.812500 0.687500
vt 0.625000 0.687500
vt 0.437500 0.937500
vt 0.437500 0.703125
vt 0.781250 0.703125
vt 0.625000 0.953125
vt 0.531250 0.937500
vt 0.781250 0.937500
vt 0.500000 1.000000
vt 0.500000 0.953125
vt 0.625000 0.953125
vt 0.062500 0.250000
vt 0.000000 0.281250
vt 0.062500 0.343750
vt 0.375000 0.953125
vt 0.062500 1.000000
vt 0.062500 0.953125
vt 0.250000 0.343750
vt 0.062500 0.343750
vt 0.843750 0.375000
vt 0.468750 0.390625
vt 0.468750 0.375000
vt 0.437500 0.937500
vt 0.000000 0.703125
vt 0.437500 0.703125
vt 0.375000 0.250000
vt 0.093750 0.078125
vt 0.000000 0.078125
vt 0.343750 0.046875
vt 0.000000 0.218750
vt 0.093750 0.171875
vt 0.812500 0.203125
vt 0.437500 0.015625
vt 0.437500 0.203125
vt 0.468750 0.031250
vt 0.312500 0.218750
vt 0.375000 0.343750
vt 0.562500 0.250000
vt 0.625000 0.218750
vt 0.812500 0.203125
vt 0.437500 0.218750
vt 0.625000 0.218750
vt 0.625000 0.359375
vt 0.656250 0.234375
vt 0.906250 0.359375
vt 0.625000 0.375000
vt 0.437500 0.625000
vt 0.000000 0.625000
vt 0.000000 0.390625
vt 0.343750 0.625000
vt 0.343750 0.640625
vt 0.375000 0.640625
vt 0.375000 0.687500
vt 0.062500 0.250000
vt 0.843750 0.703125
vt 0.468750 0.703125
vt 0.343750 0.953125
vt 0.250000 0.343750
vt 0.875000 0.625000
vt 0.406250 0.375000
vt 0.781250 0.640625
vt 0.406250 0.703125
vt 0.562500 0.687500
vt 0.500000 0.640625
vt 0.500000 0.687500
vt 0.875000 0.703125
vt 0.875000 0.937500
vt 0.781250 0.953125
vt 0.531250 0.953125
vt 0.812500 0.953125
vt 0.812500 1.000000
vt -0.000000 0.250000
vt 0.000000 0.343750
vt 0.375000 1.000000
vt 0.843750 0.390625
vt 0.000000 0.937500
vn 0.0000 1.0000 0.0000
vn 0.0000 0.0000 1.0000
vn 0.0000 -1.0000 0.0000
vn -1.0000 0.0000 0.0000
vn 0.0000 0.0000 -1.0000
vn 1.0000 0.0000 0.0000
usemtl pot
s off
f 30/1/1 19/2/1 46/3/1
f 42/4/1 14/5/1 15/6/1
f 10/7/1 27/8/1 44/9/1
f 27/10/2 51/11/2 52/12/2
f 36/13/3 9/14/3 13/15/3
f 31/16/1 7/17/1 22/18/1
f 32/19/3 8/20/3 1/21/3
f 34/22/3 24/23/3 23/24/3
f 17/25/3 41/26/3 11/27/3
f 29/28/3 39/29/3 38/30/3
f 10/31/2 49/32/2 51/11/2
f 36/33/2 52/12/2 50/34/2
f 9/35/2 50/34/2 49/32/2
f 88/36/4 54/37/4 55/38/4
f 93/39/4 57/40/4 56/41/4
f 59/42/4 82/43/4 92/44/4
f 76/45/4 101/46/4 104/47/4
f 87/48/5 78/49/5 79/50/5
f 99/51/6 70/52/6 98/53/6
f 84/54/6 75/55/6 103/56/6
f 61/57/2 67/58/2 54/37/2
f 87/59/4 65/60/4 77/61/4
f 98/62/2 69/63/2 68/64/2
f 79/65/6 66/66/6 60/67/6
f 75/68/2 71/69/2 76/70/2
f 63/71/2 74/72/2 102/73/2
f 81/74/5 91/75/5 89/76/5
f 94/77/5 99/78/5 57/79/5
f 86/80/5 96/81/5 83/82/5
f 84/83/5 85/84/5 101/85/5
f 96/86/6 74/87/6 63/88/6
f 84/83/1 71/89/1 64/90/1
f 60/91/2 65/92/2 53/93/2
f 108/94/6 105/95/6 106/96/6
f 30/1/1 47/97/1 19/2/1
f 4/98/1 3/99/1 15/6/1
f 3/99/1 42/4/1 15/6/1
f 43/100/1 15/6/1 14/5/1
f 45/101/1 3/99/1 5/102/1
f 3/99/1 4/98/1 5/102/1
f 43/100/1 14/5/1 10/7/1
f 45/101/1 5/102/1 44/9/1
f 44/9/1 43/100/1 10/7/1
f 27/8/1 45/101/1 44/9/1
f 27/10/2 10/31/2 51/11/2
f 24/23/3 34/22/3 35/103/3
f 34/22/3 36/13/3 35/103/3
f 2/104/3 33/105/3 12/106/3
f 33/105/3 23/24/3 12/106/3
f 2/104/3 12/106/3 13/15/3
f 13/15/3 35/103/3 36/13/3
f 9/14/3 2/104/3 13/15/3
f 7/17/1 18/107/1 47/97/1
f 18/107/1 19/2/1 47/97/1
f 47/97/1 21/108/1 7/17/1
f 30/1/1 46/3/1 48/109/1
f 46/3/1 20/110/1 48/109/1
f 22/18/1 48/109/1 20/110/1
f 7/17/1 21/108/1 22/18/1
f 22/18/1 20/110/1 31/16/1
f 32/19/3 25/111/3 8/20/3
f 33/105/3 26/112/3 23/24/3
f 26/112/3 34/22/3 23/24/3
f 6/113/3 37/114/3 16/115/3
f 37/114/3 38/30/3 16/115/3
f 39/29/3 29/28/3 40/116/3
f 29/28/3 41/26/3 40/116/3
f 11/27/3 6/113/3 16/115/3
f 17/25/3 40/116/3 41/26/3
f 11/27/3 16/115/3 17/25/3
f 37/114/3 28/117/3 38/30/3
f 28/117/3 29/28/3 38/30/3
f 10/31/2 9/35/2 49/32/2
f 36/33/2 27/10/2 52/12/2
f 9/35/2 36/33/2 50/34/2
f 97/118/4 55/38/4 54/37/4
f 55/38/4 100/119/4 88/36/4
f 100/119/4 80/120/4 88/36/4
f 68/121/4 69/122/4 56/41/4
f 69/122/4 93/39/4 56/41/4
f 58/123/4 72/124/4 92/44/4
f 72/124/4 59/42/4 92/44/4
f 76/45/4 71/125/4 101/46/4
f 77/126/5 78/49/5 87/48/5
f 78/49/5 90/127/5 79/50/5
f 99/51/6 95/128/6 70/52/6
f 84/54/6 64/129/6 75/55/6
f 62/130/2 67/58/2 61/57/2
f 67/58/2 97/118/2 54/37/2
f 87/59/4 53/131/4 65/60/4
f 98/62/2 70/132/2 69/63/2
f 79/65/6 90/133/6 66/66/6
f 75/68/2 64/129/2 71/69/2
f 102/73/2 73/134/2 58/135/2
f 73/134/2 72/136/2 58/135/2
f 102/73/2 58/135/2 63/71/2
f 89/76/5 80/137/5 100/138/5
f 100/138/5 81/74/5 89/76/5
f 57/79/5 93/139/5 94/77/5
f 94/77/5 95/140/5 99/78/5
f 82/141/5 59/142/5 83/82/5
f 59/142/5 86/80/5 83/82/5
f 103/143/5 85/84/5 84/83/5
f 85/84/5 104/144/5 101/85/5
f 96/86/6 86/145/6 74/87/6
f 84/83/1 101/46/1 71/89/1
f 60/91/2 66/146/2 65/92/2
f 108/94/6 107/147/6 105/95/6
