# Blender v2.83.20 OBJ File: 'everness_better_vine_1.blend'
# www.blender.org
mtllib everness_vine_wall.mtl
o Plane
v 0.470000 -0.490000 -0.470000
v -0.470000 -0.490000 -0.470000
v 0.470000 -0.490000 0.470000
v -0.470000 -0.490000 0.470000
v -0.752156 -0.490000 0.461451
v 0.751842 -0.492615 0.461221
v -0.751842 -0.272978 0.044555
v 0.752156 -0.275593 0.044326
v 0.752156 -0.275593 -0.073174
v -0.751842 -0.272978 -0.072945
v 0.751842 -0.492615 0.343721
v -0.752156 -0.490000 0.343951
v -0.752156 -0.490000 0.226451
v 0.751842 -0.492615 0.226221
v -0.751842 -0.272978 -0.190445
v 0.752156 -0.275593 -0.190674
v 0.752156 -0.275593 -0.308174
v -0.751842 -0.272978 -0.307945
v 0.751842 -0.492615 0.108721
v -0.752156 -0.490000 0.108951
v -0.752156 -0.490000 -0.008549
v 0.751842 -0.492615 -0.008779
v -0.751842 -0.272978 -0.425445
v 0.752156 -0.275593 -0.425674
v 0.752156 -0.275593 -0.543174
v -0.751842 -0.272978 -0.542945
v 0.751842 -0.492615 -0.126279
v -0.752156 -0.490000 -0.126049
v -0.752156 -0.490000 -0.243549
v 0.751842 -0.492615 -0.243779
v -0.751842 -0.272978 -0.660445
v 0.752156 -0.275593 -0.660674
v 0.752156 -0.275593 -0.778174
v -0.751842 -0.272978 -0.777945
v 0.751842 -0.492615 -0.361279
v -0.752156 -0.490000 -0.361050
v 0.752149 -0.315254 -0.905760
v -0.751849 -0.312629 -0.905760
v 0.751848 -0.487510 -0.468464
v -0.752149 -0.484885 -0.468463
vt -0.000000 0.727273
vt 1.000000 0.818182
vt -0.000000 0.818182
vt 1.000000 0.636364
vt 0.000000 0.727273
vt 0.000000 0.636364
vt 1.000000 0.545455
vt 0.000000 0.636364
vt 0.000000 0.545455
vt 1.000000 0.454546
vt 0.000000 0.545455
vt 0.000000 0.454546
vt 0.000000 0.363636
vt 1.000000 0.454546
vt 0.000000 0.454546
vt 0.000000 0.272727
vt 1.000000 0.363636
vt 0.000000 0.363636
vt 1.000000 0.181818
vt 0.000000 0.272727
vt 0.000000 0.181818
vt 1.000000 0.090909
vt 0.000000 0.181818
vt 0.000000 0.090909
vt 0.000000 -0.000000
vt 1.000000 0.090909
vt 0.000000 0.090909
vt 0.166667 0.818182
vt 0.833333 1.000000
vt 0.833333 0.818182
vt 1.000000 0.727273
vt 1.000000 0.727273
vt 1.000000 0.636364
vt 1.000000 0.545455
vt 1.000000 0.363636
vt 1.000000 0.272727
vt 1.000000 0.272727
vt 1.000000 0.181818
vt 1.000000 0.000000
vt 0.166667 1.000000
vn 0.0016 0.8870 0.4617
vn 0.0016 0.9304 0.3665
vn 0.0000 1.0000 -0.0000
usemtl leaves
s off
f 8/1/1 5/2/1 6/3/1
f 10/4/1 11/5/1 9/6/1
f 15/7/1 14/8/1 16/9/1
f 18/10/1 19/11/1 17/12/1
f 24/13/1 21/14/1 22/15/1
f 25/16/1 28/17/1 27/18/1
f 31/19/1 30/20/1 32/21/1
f 34/22/1 35/23/1 33/24/1
f 37/25/2 40/26/2 39/27/2
f 3/28/3 2/29/3 4/30/3
f 8/1/1 7/31/1 5/2/1
f 10/4/1 12/32/1 11/5/1
f 15/7/1 13/33/1 14/8/1
f 18/10/1 20/34/1 19/11/1
f 24/13/1 23/35/1 21/14/1
f 25/16/1 26/36/1 28/17/1
f 31/19/1 29/37/1 30/20/1
f 34/22/1 36/38/1 35/23/1
f 37/25/2 38/39/2 40/26/2
f 3/28/3 1/40/3 2/29/3
