# Made in Blockbench 4.6.1
mtllib cskins_hand.mtl

o cube
v -0.10456453796722598 0.09272274478088183 0.0625
v -0.10456453796722598 0.09272274478088183 -0.0625
v 0.01617619031890749 0.060370364143066735 0.0625
v 0.01617619031890749 0.060370364143066735 -0.0625
v -0.19757763230094438 -0.25440684904175204 -0.0625
v -0.19757763230094438 -0.25440684904175204 0.0625
v -0.07683690401481086 -0.28675922967956713 -0.0625
v -0.07683690401481086 -0.28675922967956713 0.0625
vt 0.875 0
vt 0.875 0.375
vt 0.8125 0.375
vt 0.8125 0
vt 0.125 0.5
vt 0.1875 0.5
vt 0.1875 0.375
vt 0.125 0.375
vt 0.6875 0.375
vt 0.6875 0
vt 0.75 0
vt 0.75 0.375
vt 0.75 0.5
vt 0.6875 0.5
vt 0.6875 0.375
vt 0.75 0.375
vt 0.6875 0.375
vt 0.6875 0
vt 0.625 0
vt 0.625 0.375
vt 0.5625 0.375
vt 0.5625 0
vt 0.625 0
vt 0.625 0.375
vn 0 0 -1
vn 0.25881904510252074 0.9659258262890683 0
vn 0 0 1
vn -0.25881904510252074 -0.9659258262890683 0
vn -0.9659258262890683 0.25881904510252074 0
vn 0.9659258262890683 -0.25881904510252074 0
usemtl m_fff0573a-83a1-1cff-4a98-5767651ce920
f 4/4/1 7/3/1 5/2/1 2/1/1
f 3/8/2 4/7/2 2/6/2 1/5/2
f 8/12/3 3/11/3 1/10/3 6/9/3
f 7/16/4 8/15/4 6/14/4 5/13/4
f 6/20/5 1/19/5 2/18/5 5/17/5
f 7/24/6 4/23/6 3/22/6 8/21/6