# Blender 3.6.1
# www.blender.org
mtllib door.mtl
o door_Cube.007
v -0.500000 -0.500000 -0.375000
v -0.500000 1.500000 -0.375000
v -0.500000 -0.500000 -0.500000
v -0.500000 1.500000 -0.500000
v 0.500000 -0.500000 -0.375000
v 0.500000 1.500000 -0.375000
v 0.500000 -0.500000 -0.500000
v 0.500000 1.500000 -0.500000
vn -1.0000 -0.0000 -0.0000
vn -0.0000 -0.0000 -1.0000
vn 1.0000 -0.0000 -0.0000
vn -0.0000 -0.0000 1.0000
vn -0.0000 -1.0000 -0.0000
vn -0.0000 1.0000 -0.0000
vt 1.000000 0.000000
vt 1.000000 1.000000
vt 0.875000 1.000000
vt 0.875000 0.000000
vt 0.000000 1.000000
vt 0.000000 0.000000
vt 0.125000 0.000000
vt 0.125000 1.000000
vt 1.000000 0.062500
vt 0.000000 0.062500
vt 0.000000 0.937500
vt 1.000000 0.937500
s 0
usemtl Material.001
f 1/1/1 2/2/1 4/3/1 3/4/1
f 3/1/2 4/2/2 8/5/2 7/6/2
f 7/7/3 8/8/3 6/5/3 5/6/3
f 5/6/4 6/5/4 2/2/4 1/1/4
f 3/9/5 7/10/5 5/6/5 1/1/5
f 8/11/6 4/12/6 2/2/6 6/5/6
